<svg width="123" height="16" viewBox="0 0 123 16" fill="none" xmlns="http://www.w3.org/2000/svg">
<path d="M6.43648 15.24C5.40982 15.24 4.50982 15.06 3.73648 14.7C2.96315 14.34 2.35648 13.8267 1.91648 13.16C1.48982 12.4933 1.26982 11.7 1.25648 10.78H3.49648C3.50982 11.5267 3.76982 12.16 4.27648 12.68C4.78315 13.2 5.49648 13.46 6.41648 13.46C7.22982 13.46 7.86315 13.2667 8.31648 12.88C8.78315 12.48 9.01648 11.9733 9.01648 11.36C9.01648 10.8667 8.90315 10.4667 8.67649 10.16C8.46315 9.85333 8.16315 9.6 7.77648 9.4C7.40315 9.2 6.96982 9.02 6.47648 8.86C5.98315 8.7 5.46315 8.52667 4.91648 8.34C3.83648 7.98 3.02315 7.51333 2.47648 6.94C1.94315 6.36667 1.67648 5.61333 1.67648 4.68C1.66315 3.89333 1.84315 3.20667 2.21648 2.62C2.60315 2.03333 3.13648 1.58 3.81648 1.26C4.50982 0.926666 5.31648 0.76 6.23648 0.76C7.14315 0.76 7.93648 0.926666 8.61648 1.26C9.30982 1.59333 9.84982 2.06 10.2365 2.66C10.6232 3.24667 10.8232 3.93333 10.8365 4.72H8.59648C8.59648 4.36 8.50315 4.02 8.31648 3.7C8.12982 3.36667 7.85648 3.09333 7.49648 2.88C7.13648 2.66667 6.69648 2.56 6.17648 2.56C5.50982 2.54667 4.95648 2.71333 4.51648 3.06C4.08982 3.40667 3.87648 3.88667 3.87648 4.5C3.87648 5.04667 4.03648 5.46667 4.35648 5.76C4.67648 6.05333 5.11648 6.3 5.67648 6.5C6.23648 6.68667 6.87648 6.90667 7.59648 7.16C8.28982 7.38667 8.90982 7.66 9.45648 7.98C10.0032 8.3 10.4365 8.72 10.7565 9.24C11.0898 9.76 11.2565 10.42 11.2565 11.22C11.2565 11.9267 11.0765 12.5867 10.7165 13.2C10.3565 13.8 9.81648 14.2933 9.09649 14.68C8.37648 15.0533 7.48982 15.24 6.43648 15.24ZM13.4943 15V0.599999H15.6143V6.68C15.9476 6.10667 16.4076 5.66 16.9943 5.34C17.5943 5.00667 18.2543 4.84 18.9743 4.84C20.161 4.84 21.0943 5.21333 21.7743 5.96C22.4543 6.70667 22.7943 7.82 22.7943 9.3V15H20.6943V9.52C20.6943 7.6 19.9276 6.64 18.3943 6.64C17.5943 6.64 16.9276 6.92 16.3943 7.48C15.8743 8.04 15.6143 8.84 15.6143 9.88V15H13.4943ZM28.6512 15.24C27.8112 15.24 27.1178 15.1 26.5712 14.82C26.0245 14.54 25.6178 14.1733 25.3512 13.72C25.0845 13.2533 24.9512 12.7467 24.9512 12.2C24.9512 11.24 25.3245 10.48 26.0712 9.92C26.8178 9.36 27.8845 9.08 29.2712 9.08H31.8712V8.9C31.8712 8.12667 31.6578 7.54667 31.2312 7.16C30.8178 6.77333 30.2778 6.58 29.6112 6.58C29.0245 6.58 28.5112 6.72667 28.0712 7.02C27.6445 7.3 27.3845 7.72 27.2912 8.28H25.1712C25.2378 7.56 25.4778 6.94667 25.8912 6.44C26.3178 5.92 26.8512 5.52667 27.4912 5.26C28.1445 4.98 28.8578 4.84 29.6312 4.84C31.0178 4.84 32.0912 5.20667 32.8512 5.94C33.6112 6.66 33.9912 7.64667 33.9912 8.9V15H32.1512L31.9712 13.3C31.6912 13.8467 31.2845 14.3067 30.7512 14.68C30.2178 15.0533 29.5178 15.24 28.6512 15.24ZM29.0712 13.52C29.6445 13.52 30.1245 13.3867 30.5112 13.12C30.9112 12.84 31.2178 12.4733 31.4312 12.02C31.6578 11.5667 31.7978 11.0667 31.8512 10.52H29.4912C28.6512 10.52 28.0512 10.6667 27.6912 10.96C27.3445 11.2533 27.1712 11.62 27.1712 12.06C27.1712 12.5133 27.3378 12.8733 27.6712 13.14C28.0178 13.3933 28.4845 13.52 29.0712 13.52ZM36.463 15V5.08H38.363L38.543 6.96C38.8897 6.30667 39.3697 5.79333 39.983 5.42C40.6097 5.03333 41.363 4.84 42.243 4.84V7.06H41.663C41.0764 7.06 40.5497 7.16 40.083 7.36C39.6297 7.54667 39.263 7.87333 38.983 8.34C38.7164 8.79333 38.583 9.42667 38.583 10.24V15H36.463ZM48.4273 15.24C47.4539 15.24 46.5873 15.0267 45.8273 14.6C45.0806 14.16 44.4939 13.5533 44.0673 12.78C43.6406 12.0067 43.4273 11.1067 43.4273 10.08C43.4273 9.04 43.6339 8.12667 44.0473 7.34C44.4739 6.55333 45.0606 5.94 45.8073 5.5C46.5673 5.06 47.4473 4.84 48.4473 4.84C49.4206 4.84 50.2673 5.06 50.9873 5.5C51.7073 5.92667 52.2673 6.5 52.6673 7.22C53.0673 7.94 53.2673 8.73333 53.2673 9.6C53.2673 9.73333 53.2606 9.88 53.2473 10.04C53.2473 10.1867 53.2406 10.3533 53.2273 10.54H45.5073C45.5739 11.5 45.8873 12.2333 46.4473 12.74C47.0206 13.2333 47.6806 13.48 48.4273 13.48C49.0273 13.48 49.5273 13.3467 49.9273 13.08C50.3406 12.8 50.6473 12.4267 50.8473 11.96H52.9673C52.7006 12.8933 52.1673 13.6733 51.3673 14.3C50.5806 14.9267 49.6006 15.24 48.4273 15.24ZM48.4273 6.58C47.7206 6.58 47.0939 6.79333 46.5473 7.22C46.0006 7.63333 45.6673 8.26 45.5473 9.1H51.1473C51.1073 8.32667 50.8339 7.71333 50.3273 7.26C49.8206 6.80667 49.1873 6.58 48.4273 6.58ZM55.547 15V0.999999H64.327V2.72H57.667V7.14H63.187V8.84H57.667V15H55.547ZM70.478 15.24C69.5314 15.24 68.678 15.0267 67.918 14.6C67.1714 14.16 66.578 13.5533 66.138 12.78C65.698 11.9933 65.478 11.08 65.478 10.04C65.478 9 65.698 8.09333 66.138 7.32C66.5914 6.53333 67.198 5.92667 67.958 5.5C68.718 5.06 69.5647 4.84 70.498 4.84C71.4447 4.84 72.2914 5.06 73.038 5.5C73.798 5.92667 74.398 6.53333 74.838 7.32C75.2914 8.09333 75.518 9 75.518 10.04C75.518 11.08 75.2914 11.9933 74.838 12.78C74.398 13.5533 73.798 14.16 73.038 14.6C72.278 15.0267 71.4247 15.24 70.478 15.24ZM70.478 13.42C70.9847 13.42 71.4514 13.2933 71.878 13.04C72.318 12.7867 72.6714 12.4133 72.938 11.92C73.2047 11.4133 73.338 10.7867 73.338 10.04C73.338 9.29333 73.2047 8.67333 72.938 8.18C72.6847 7.67333 72.338 7.29333 71.898 7.04C71.4714 6.78667 71.0047 6.66 70.498 6.66C69.9914 6.66 69.518 6.78667 69.078 7.04C68.6514 7.29333 68.3047 7.67333 68.038 8.18C67.7714 8.67333 67.638 9.29333 67.638 10.04C67.638 10.7867 67.7714 11.4133 68.038 11.92C68.3047 12.4133 68.6514 12.7867 69.078 13.04C69.5047 13.2933 69.9714 13.42 70.478 13.42ZM82.4507 15.24C81.504 15.24 80.6507 15.0267 79.8907 14.6C79.144 14.16 78.5507 13.5533 78.1107 12.78C77.6707 11.9933 77.4507 11.08 77.4507 10.04C77.4507 9 77.6707 8.09333 78.1107 7.32C78.564 6.53333 79.1707 5.92667 79.9307 5.5C80.6907 5.06 81.5374 4.84 82.4707 4.84C83.4174 4.84 84.264 5.06 85.0107 5.5C85.7707 5.92667 86.3707 6.53333 86.8107 7.32C87.264 8.09333 87.4907 9 87.4907 10.04C87.4907 11.08 87.264 11.9933 86.8107 12.78C86.3707 13.5533 85.7707 14.16 85.0107 14.6C84.2507 15.0267 83.3974 15.24 82.4507 15.24ZM82.4507 13.42C82.9574 13.42 83.424 13.2933 83.8507 13.04C84.2907 12.7867 84.644 12.4133 84.9107 11.92C85.1774 11.4133 85.3107 10.7867 85.3107 10.04C85.3107 9.29333 85.1774 8.67333 84.9107 8.18C84.6574 7.67333 84.3107 7.29333 83.8707 7.04C83.444 6.78667 82.9774 6.66 82.4707 6.66C81.964 6.66 81.4907 6.78667 81.0507 7.04C80.624 7.29333 80.2774 7.67333 80.0107 8.18C79.744 8.67333 79.6107 9.29333 79.6107 10.04C79.6107 10.7867 79.744 11.4133 80.0107 11.92C80.2774 12.4133 80.624 12.7867 81.0507 13.04C81.4774 13.2933 81.944 13.42 82.4507 13.42ZM94.3034 15.24C93.3434 15.24 92.4967 15.0133 91.7634 14.56C91.03 14.1067 90.4567 13.4867 90.0434 12.7C89.63 11.9133 89.4234 11.02 89.4234 10.02C89.4234 9.02 89.63 8.13333 90.0434 7.36C90.4567 6.57333 91.03 5.96 91.7634 5.52C92.51 5.06667 93.3634 4.84 94.3234 4.84C95.11 4.84 95.7967 4.99333 96.3834 5.3C96.9834 5.60667 97.45 6.04 97.7834 6.6V0.599999H99.9034V15H98.0034L97.7834 13.46C97.4634 13.9267 97.0234 14.34 96.4634 14.7C95.9034 15.06 95.1834 15.24 94.3034 15.24ZM94.6834 13.4C95.59 13.4 96.33 13.0867 96.9034 12.46C97.49 11.8333 97.7834 11.0267 97.7834 10.04C97.7834 9.04 97.49 8.23333 96.9034 7.62C96.33 6.99333 95.59 6.68 94.6834 6.68C93.7767 6.68 93.03 6.99333 92.4434 7.62C91.8567 8.23333 91.5634 9.04 91.5634 10.04C91.5634 10.6933 91.6967 11.2733 91.9634 11.78C92.23 12.2867 92.5967 12.6867 93.0634 12.98C93.5434 13.26 94.0834 13.4 94.6834 13.4ZM103.416 15.12C103.016 15.12 102.683 14.9933 102.416 14.74C102.163 14.4733 102.036 14.16 102.036 13.8C102.036 13.4267 102.163 13.1133 102.416 12.86C102.683 12.5933 103.016 12.46 103.416 12.46C103.816 12.46 104.143 12.5933 104.396 12.86C104.65 13.1133 104.776 13.4267 104.776 13.8C104.776 14.16 104.65 14.4733 104.396 14.74C104.143 14.9933 103.816 15.12 103.416 15.12ZM108.112 3.2C107.712 3.2 107.379 3.08 107.112 2.84C106.859 2.58667 106.732 2.27333 106.732 1.9C106.732 1.52667 106.859 1.22 107.112 0.979999C107.379 0.726666 107.712 0.599999 108.112 0.599999C108.512 0.599999 108.839 0.726666 109.092 0.979999C109.359 1.22 109.492 1.52667 109.492 1.9C109.492 2.27333 109.359 2.58667 109.092 2.84C108.839 3.08 108.512 3.2 108.112 3.2ZM107.052 15V5.08H109.172V15H107.052ZM116.611 15.24C115.664 15.24 114.811 15.0267 114.051 14.6C113.304 14.16 112.711 13.5533 112.271 12.78C111.831 11.9933 111.611 11.08 111.611 10.04C111.611 9 111.831 8.09333 112.271 7.32C112.724 6.53333 113.331 5.92667 114.091 5.5C114.851 5.06 115.698 4.84 116.631 4.84C117.578 4.84 118.424 5.06 119.171 5.5C119.931 5.92667 120.531 6.53333 120.971 7.32C121.424 8.09333 121.651 9 121.651 10.04C121.651 11.08 121.424 11.9933 120.971 12.78C120.531 13.5533 119.931 14.16 119.171 14.6C118.411 15.0267 117.558 15.24 116.611 15.24ZM116.611 13.42C117.118 13.42 117.584 13.2933 118.011 13.04C118.451 12.7867 118.804 12.4133 119.071 11.92C119.338 11.4133 119.471 10.7867 119.471 10.04C119.471 9.29333 119.338 8.67333 119.071 8.18C118.818 7.67333 118.471 7.29333 118.031 7.04C117.604 6.78667 117.138 6.66 116.631 6.66C116.124 6.66 115.651 6.78667 115.211 7.04C114.784 7.29333 114.438 7.67333 114.171 8.18C113.904 8.67333 113.771 9.29333 113.771 10.04C113.771 10.7867 113.904 11.4133 114.171 11.92C114.438 12.4133 114.784 12.7867 115.211 13.04C115.638 13.2933 116.104 13.42 116.611 13.42Z" fill="#FF2264"/>
<path d="M79.7019 4.94071L80.0783 5.59281L84.8975 5.59301L85.2735 4.94181C83.4879 3.91073 81.3687 3.98054 79.7019 4.94071Z" fill="#FE841A"/>
<path d="M79.7867 4.90002C78.001 5.93093 77.0019 7.80109 77 9.72468L77.7539 9.7247L80.1631 5.55196L79.7867 4.90002Z" fill="#FE841A"/>
<path d="M77.7539 9.71894L77.0009 9.71892C77.0008 11.7809 78.1209 13.5812 79.7858 14.5446L80.1627 13.8919L77.7539 9.71894Z" fill="#FE841A"/>
<path d="M84.9679 13.8843L80.1488 13.8841L79.7727 14.5353C81.5584 15.5663 83.6482 15.4423 85.315 14.4821L84.9679 13.8843Z" fill="#FE841A"/>
<path d="M87.2461 9.71892L84.8369 13.8917L85.2133 14.5436C86.999 13.5127 87.9981 11.6425 88 9.71894L87.2461 9.71892Z" fill="#FE841A"/>
<path d="M85.2139 4.89954L84.8369 5.55224L87.2457 9.72519L87.9987 9.72521C87.9988 7.66332 86.8788 5.86296 85.2139 4.89954Z" fill="#FE841A"/>
<path d="M84.9461 5.57893C84.2143 5.23615 83.3978 5.04424 82.5363 5.04424C81.6749 5.04424 80.8585 5.23605 80.1269 5.57873L82.5363 9.75237L84.9461 5.57893Z" fill="#FFE368"/>
<path d="M80.1631 5.55196C78.8195 6.49232 77.9013 7.9984 77.754 9.7247L82.5721 9.72493L80.1631 5.55196Z" fill="#FFE368"/>
<path d="M77.754 9.7189C77.9011 11.4452 78.8192 12.9514 80.1627 13.8918L82.5721 9.71913L77.754 9.7189Z" fill="#FFE368"/>
<path d="M80.1623 13.8923C80.8941 14.2351 81.7106 14.427 82.5721 14.427C83.4287 14.427 84.1679 14.2425 84.8957 13.9034C84.8997 13.9015 84.9215 13.882 84.9255 13.8801L82.5721 9.7189L80.1623 13.8923Z" fill="#FFE368"/>
<path d="M87.3177 9.71913L82.4996 9.7189L84.9086 13.8919C86.2522 12.9515 87.1704 11.4454 87.3177 9.71913Z" fill="#FFE368"/>
<path d="M87.3178 9.72516C87.1706 7.99884 86.2525 6.49265 84.909 5.55222L82.4996 9.72493L87.3178 9.72516Z" fill="#FFE368"/>
<path d="M82.5362 7.97967C82.6555 7.97967 82.7522 7.88299 82.7522 7.76372C82.7522 7.64446 82.6555 7.54778 82.5362 7.54778C82.417 7.54778 82.3203 7.64446 82.3203 7.76372C82.3203 7.88299 82.417 7.97967 82.5362 7.97967Z" fill="#AD4A38"/>
<path d="M78.7482 9.1696C78.8674 9.1696 78.9641 9.07291 78.9641 8.95365C78.9641 8.83438 78.8674 8.7377 78.7482 8.7377C78.6289 8.7377 78.5322 8.83438 78.5322 8.95365C78.5322 9.07291 78.6289 9.1696 78.7482 9.1696Z" fill="#AD4A38"/>
<path d="M80.6344 9.14083C80.7537 9.14083 80.8504 9.04415 80.8504 8.92489C80.8504 8.80562 80.7537 8.70894 80.6344 8.70894C80.5151 8.70894 80.4185 8.80562 80.4185 8.92489C80.4185 9.04415 80.5151 9.14083 80.6344 9.14083Z" fill="#AD4A38"/>
<path d="M80.9656 11.1952C81.0849 11.1952 81.1816 11.0985 81.1816 10.9792C81.1816 10.8599 81.0849 10.7632 80.9656 10.7632C80.8463 10.7632 80.7496 10.8599 80.7496 10.9792C80.7496 11.0985 80.8463 11.1952 80.9656 11.1952Z" fill="#AD4A38"/>
<path d="M82.4425 11.7076C82.5618 11.7076 82.6585 11.6109 82.6585 11.4916C82.6585 11.3724 82.5618 11.2757 82.4425 11.2757C82.3232 11.2757 82.2266 11.3724 82.2266 11.4916C82.2266 11.6109 82.3232 11.7076 82.4425 11.7076Z" fill="#AD4A38"/>
<path d="M84.0614 10.8669C84.1807 10.8669 84.2774 10.7702 84.2774 10.651C84.2774 10.5317 84.1807 10.435 84.0614 10.435C83.9421 10.435 83.8455 10.5317 83.8455 10.651C83.8455 10.7702 83.9421 10.8669 84.0614 10.8669Z" fill="#AD4A38"/>
<path d="M85.0812 12.8453C85.2004 12.8453 85.2971 12.7486 85.2971 12.6294C85.2971 12.5101 85.2004 12.4134 85.0812 12.4134C84.9619 12.4134 84.8652 12.5101 84.8652 12.6294C84.8652 12.7486 84.9619 12.8453 85.0812 12.8453Z" fill="#AD4A38"/>
<path d="M85.0812 7.01266C85.2005 7.01266 85.2972 6.91595 85.2972 6.79666C85.2972 6.67736 85.2005 6.58066 85.0812 6.58066C84.9619 6.58066 84.8652 6.67736 84.8652 6.79666C84.8652 6.91595 84.9619 7.01266 85.0812 7.01266Z" fill="#AD4A38"/>
<path d="M82.5363 6.96715C82.827 6.96715 83.0627 6.73144 83.0627 6.44067C83.0627 6.1499 82.827 5.91418 82.5363 5.91418C82.2455 5.91418 82.0098 6.1499 82.0098 6.44067C82.0098 6.73144 82.2455 6.96715 82.5363 6.96715Z" fill="#F63E31"/>
<path d="M79.704 8.59545C79.9947 8.59545 80.2304 8.35973 80.2304 8.06896C80.2304 7.7782 79.9947 7.54248 79.704 7.54248C79.4132 7.54248 79.1775 7.7782 79.1775 8.06896C79.1775 8.35973 79.4132 8.59545 79.704 8.59545Z" fill="#F63E31"/>
<path d="M79.704 11.9016C79.9947 11.9016 80.2304 11.6659 80.2304 11.3752C80.2304 11.0844 79.9947 10.8487 79.704 10.8487C79.4132 10.8487 79.1775 11.0844 79.1775 11.3752C79.1775 11.6659 79.4132 11.9016 79.704 11.9016Z" fill="#F63E31"/>
<path d="M82.5721 13.5571C82.8628 13.5571 83.0986 13.3214 83.0986 13.0306C83.0986 12.7398 82.8628 12.5041 82.5721 12.5041C82.2813 12.5041 82.0456 12.7398 82.0456 13.0306C82.0456 13.3214 82.2813 13.5571 82.5721 13.5571Z" fill="#F63E31"/>
<path d="M85.3677 11.9014C85.6585 11.9014 85.8942 11.6657 85.8942 11.3749C85.8942 11.0842 85.6585 10.8484 85.3677 10.8484C85.0769 10.8484 84.8412 11.0842 84.8412 11.3749C84.8412 11.6657 85.0769 11.9014 85.3677 11.9014Z" fill="#F63E31"/>
<path d="M85.3677 8.59545C85.6585 8.59545 85.8942 8.35973 85.8942 8.06896C85.8942 7.7782 85.6585 7.54248 85.3677 7.54248C85.077 7.54248 84.8412 7.7782 84.8412 8.06896C84.8412 8.35973 85.077 8.59545 85.3677 8.59545Z" fill="#F63E31"/>
<path d="M67.7019 4.94071L68.0783 5.59281L72.8975 5.59301L73.2735 4.94181C71.4879 3.91073 69.3687 3.98054 67.7019 4.94071Z" fill="#FE841A"/>
<path d="M67.7867 4.90002C66.001 5.93093 65.0019 7.80109 65 9.72468L65.7539 9.7247L68.1631 5.55196L67.7867 4.90002Z" fill="#FE841A"/>
<path d="M65.7539 9.71894L65.0009 9.71892C65.0008 11.7809 66.1209 13.5812 67.7858 14.5446L68.1627 13.8919L65.7539 9.71894Z" fill="#FE841A"/>
<path d="M72.9679 13.8843L68.1487 13.8841L67.7727 14.5353C69.5584 15.5663 71.6482 15.4423 73.315 14.4821L72.9679 13.8843Z" fill="#FE841A"/>
<path d="M75.2461 9.71892L72.8369 13.8917L73.2133 14.5436C74.999 13.5127 75.9981 11.6425 76 9.71894L75.2461 9.71892Z" fill="#FE841A"/>
<path d="M73.2139 4.89954L72.8369 5.55224L75.2457 9.72519L75.9987 9.72521C75.9988 7.66332 74.8788 5.86296 73.2139 4.89954Z" fill="#FE841A"/>
<path d="M72.9461 5.57893C72.2143 5.23615 71.3978 5.04424 70.5362 5.04424C69.6749 5.04424 68.8585 5.23605 68.1269 5.57873L70.5362 9.75237L72.9461 5.57893Z" fill="#FFE368"/>
<path d="M68.1631 5.55196C66.8195 6.49232 65.9013 7.9984 65.754 9.7247L70.5721 9.72493L68.1631 5.55196Z" fill="#FFE368"/>
<path d="M65.7539 9.7189C65.9011 11.4452 66.8192 12.9514 68.1627 13.8918L70.5721 9.71913L65.7539 9.7189Z" fill="#FFE368"/>
<path d="M68.1623 13.8923C68.894 14.2351 69.7106 14.427 70.5721 14.427C71.4287 14.427 72.1679 14.2425 72.8957 13.9034C72.8997 13.9015 72.9214 13.882 72.9255 13.8801L70.5721 9.7189L68.1623 13.8923Z" fill="#FFE368"/>
<path d="M75.3177 9.71913L70.4996 9.7189L72.9086 13.8919C74.2522 12.9515 75.1704 11.4454 75.3177 9.71913Z" fill="#FFE368"/>
<path d="M75.3178 9.72516C75.1706 7.99884 74.2525 6.49265 72.909 5.55222L70.4996 9.72493L75.3178 9.72516Z" fill="#FFE368"/>
<path d="M70.5362 7.97967C70.6555 7.97967 70.7522 7.88299 70.7522 7.76372C70.7522 7.64446 70.6555 7.54778 70.5362 7.54778C70.417 7.54778 70.3203 7.64446 70.3203 7.76372C70.3203 7.88299 70.417 7.97967 70.5362 7.97967Z" fill="#AD4A38"/>
<path d="M66.7482 9.1696C66.8674 9.1696 66.9641 9.07291 66.9641 8.95365C66.9641 8.83438 66.8674 8.7377 66.7482 8.7377C66.6289 8.7377 66.5322 8.83438 66.5322 8.95365C66.5322 9.07291 66.6289 9.1696 66.7482 9.1696Z" fill="#AD4A38"/>
<path d="M68.6344 9.14083C68.7537 9.14083 68.8504 9.04415 68.8504 8.92489C68.8504 8.80562 68.7537 8.70894 68.6344 8.70894C68.5152 8.70894 68.4185 8.80562 68.4185 8.92489C68.4185 9.04415 68.5152 9.14083 68.6344 9.14083Z" fill="#AD4A38"/>
<path d="M68.9656 11.1952C69.0849 11.1952 69.1816 11.0985 69.1816 10.9792C69.1816 10.8599 69.0849 10.7632 68.9656 10.7632C68.8463 10.7632 68.7496 10.8599 68.7496 10.9792C68.7496 11.0985 68.8463 11.1952 68.9656 11.1952Z" fill="#AD4A38"/>
<path d="M70.4425 11.7076C70.5618 11.7076 70.6585 11.6109 70.6585 11.4916C70.6585 11.3724 70.5618 11.2757 70.4425 11.2757C70.3232 11.2757 70.2266 11.3724 70.2266 11.4916C70.2266 11.6109 70.3232 11.7076 70.4425 11.7076Z" fill="#AD4A38"/>
<path d="M72.0614 10.8669C72.1807 10.8669 72.2774 10.7702 72.2774 10.651C72.2774 10.5317 72.1807 10.435 72.0614 10.435C71.9422 10.435 71.8455 10.5317 71.8455 10.651C71.8455 10.7702 71.9422 10.8669 72.0614 10.8669Z" fill="#AD4A38"/>
<path d="M73.0812 12.8453C73.2004 12.8453 73.2971 12.7486 73.2971 12.6294C73.2971 12.5101 73.2004 12.4134 73.0812 12.4134C72.9619 12.4134 72.8652 12.5101 72.8652 12.6294C72.8652 12.7486 72.9619 12.8453 73.0812 12.8453Z" fill="#AD4A38"/>
<path d="M73.0812 7.01266C73.2005 7.01266 73.2972 6.91595 73.2972 6.79666C73.2972 6.67736 73.2005 6.58066 73.0812 6.58066C72.9619 6.58066 72.8652 6.67736 72.8652 6.79666C72.8652 6.91595 72.9619 7.01266 73.0812 7.01266Z" fill="#AD4A38"/>
<path d="M70.5362 6.96715C70.827 6.96715 71.0627 6.73144 71.0627 6.44067C71.0627 6.1499 70.827 5.91418 70.5362 5.91418C70.2455 5.91418 70.0098 6.1499 70.0098 6.44067C70.0098 6.73144 70.2455 6.96715 70.5362 6.96715Z" fill="#F63E31"/>
<path d="M67.704 8.59545C67.9947 8.59545 68.2304 8.35973 68.2304 8.06896C68.2304 7.7782 67.9947 7.54248 67.704 7.54248C67.4132 7.54248 67.1775 7.7782 67.1775 8.06896C67.1775 8.35973 67.4132 8.59545 67.704 8.59545Z" fill="#F63E31"/>
<path d="M67.704 11.9016C67.9947 11.9016 68.2304 11.6659 68.2304 11.3752C68.2304 11.0844 67.9947 10.8487 67.704 10.8487C67.4132 10.8487 67.1775 11.0844 67.1775 11.3752C67.1775 11.6659 67.4132 11.9016 67.704 11.9016Z" fill="#F63E31"/>
<path d="M70.5721 13.5571C70.8628 13.5571 71.0986 13.3214 71.0986 13.0306C71.0986 12.7398 70.8628 12.5041 70.5721 12.5041C70.2813 12.5041 70.0456 12.7398 70.0456 13.0306C70.0456 13.3214 70.2813 13.5571 70.5721 13.5571Z" fill="#F63E31"/>
<path d="M73.3677 11.9014C73.6585 11.9014 73.8942 11.6657 73.8942 11.3749C73.8942 11.0842 73.6585 10.8484 73.3677 10.8484C73.0769 10.8484 72.8412 11.0842 72.8412 11.3749C72.8412 11.6657 73.0769 11.9014 73.3677 11.9014Z" fill="#F63E31"/>
<path d="M73.3677 8.59545C73.6585 8.59545 73.8942 8.35973 73.8942 8.06896C73.8942 7.7782 73.6585 7.54248 73.3677 7.54248C73.077 7.54248 72.8412 7.7782 72.8412 8.06896C72.8412 8.35973 73.077 8.59545 73.3677 8.59545Z" fill="#F63E31"/>
</svg>
